<?xml version="1.0" encoding="UTF-8"?>
<svg width="1111px" height="254px" viewBox="0 0 1111 254" version="1.1" xmlns="http://www.w3.org/2000/svg" xmlns:xlink="http://www.w3.org/1999/xlink">
    <!-- Generator: Sketch 55.2 (78181) - https://sketchapp.com -->
    <title>urus</title>
    <desc>Created with Sketch.</desc>
    <defs>
        <polygon id="path-1" points="0 0.159102609 137.872953 0.159102609 137.872953 63.9904923 0 63.9904923"></polygon>
        <polygon id="path-3" points="0.483231473 0.355343744 142.702629 0.355343744 142.702629 41 0.483231473 41"></polygon>
    </defs>
    <g id="urus" stroke="none" stroke-width="1" fill="none" fill-rule="evenodd">
        <g id="Group-17" transform="translate(247.000000, 95.000000)">
            <g id="Group-3">
                <g id="Fill-1-Clipped">
                    <mask id="mask-2" fill="white">
                        <use xlink:href="#path-1"></use>
                    </mask>
                    <g id="path-1"></g>
                    <path d="M27.9169769,46.4280243 L109.95124,46.4280243 L109.95124,44.2813287 C109.95124,35.910233 109.924644,27.5371026 109.994202,19.166007 C110.00034,18.3948243 110.391096,17.283833 110.978253,16.909433 C119.771292,11.3137809 128.627752,5.81376348 137.680612,0.159102609 C137.748125,0.806163478 137.838142,1.28026783 137.838142,1.75233739 C137.846326,16.1402852 137.829959,30.5302678 137.872984,44.9202504 C137.877014,46.1207722 137.482166,46.79632 136.471519,47.4209983 C127.997632,52.6727722 119.568753,57.9916939 111.090775,63.2353287 C110.358363,63.6870504 109.382495,63.9617461 108.519149,63.9617461 C82.1502621,64.000407 55.7793297,64.000407 29.4083973,63.9597113 C28.4877674,63.9576765 27.4484785,63.6483896 26.6649202,63.1641113 C18.2421794,57.9550678 9.84603462,52.7053287 1.49285255,47.386407 C0.805448881,46.9489287 0.0668991069,45.9376417 0.0628074184,45.1888417 C-0.0210721958,30.4061461 0.00143209097,15.6254852 0.00552377947,0.842789565 C0.00552377947,0.722737391 0.0668991069,0.600650435 0.144641188,0.307641739 C0.609047833,0.533502609 1.0652711,0.70645913 1.47239411,0.960806957 C9.87263059,6.20444174 18.2544545,11.4745287 26.6771952,16.6835722 C27.6551088,17.2879026 27.9456187,17.9593809 27.9394812,19.0520591 C27.8985643,27.4251896 27.9169769,35.7962852 27.9169769,44.1673809 L27.9169769,46.4280243 Z" id="Fill-1" fill="#FFFFFF" fill-rule="nonzero" mask="url(#mask-2)"></path>
                </g>
            </g>
            <path d="M347.973873,46.3326231 L429.998432,46.3326231 L429.998432,42.7289746 C429.998432,34.7801106 429.967686,26.8332894 430.045576,18.8844254 C430.053775,18.1387725 430.549813,17.0887298 431.156536,16.7026246 C439.804401,11.1847933 448.509659,5.75684885 457.202618,0.312561346 C457.356349,0.216545769 457.546975,0.181816731 457.965123,0.0286003846 L457.965123,1.42593346 C457.965123,15.8752564 457.946675,30.3266221 458.000031,44.775945 C458.004068,46.0588766 457.610517,46.7759291 456.528253,47.4459952 C448.142755,52.6390079 439.810551,57.9198647 431.414804,63.0985772 C430.527265,63.6460702 429.340464,63.9627174 428.293046,63.9647602 C402.062487,64.0117466 375.833978,64.0117466 349.603419,63.9647602 C348.556,63.9627174 347.377398,63.6215556 346.48576,63.0720197 C338.092063,57.8933072 329.735262,52.6512652 321.413306,47.3581512 C320.767637,46.9475314 320.060476,46.0057616 320.056376,45.307095 C319.980536,30.3981231 319.999553,15.4871083 320.007182,0.578136347 C320.007182,0.459649039 320.078923,0.343204616 320.18961,0 C323.0572,1.78139539 325.883795,3.52193308 328.696042,5.28289962 C334.658744,9.0172927 340.594799,12.7945864 346.594397,16.4717787 C347.715606,17.1602308 348.010769,17.9283554 348.00257,19.1683864 C347.949277,27.4441119 347.973873,35.7218804 347.973873,43.997606 L347.973873,46.3326231 Z" id="Fill-4" fill="#FFFFFF" fill-rule="nonzero"></path>
            <g id="Group-8" transform="translate(160.000000, 23.000000)">
                <g id="Fill-6-Clipped">
                    <mask id="mask-4" fill="white">
                        <use xlink:href="#path-3"></use>
                    </mask>
                    <g id="path-3"></g>
                    <path d="M0.483231473,17.4547527 C8.8752567,12.2215275 17.2857395,7.02080676 25.6408496,1.73069865 C27.2138416,0.735248198 28.770427,0.35332027 30.6243836,0.35533575 C65.4988677,0.395982432 100.373352,0.385824775 135.247836,0.385824775 L137.374554,0.385824775 C137.427876,0.51177973 137.479147,0.635703153 137.532468,0.761658108 C128.508785,6.39103198 119.485102,12.0204059 110.258386,17.7757347 C121.060145,25.4589869 131.720396,33.0386311 142.702629,40.8498698 C141.831023,40.9169104 141.347025,40.988014 140.858926,40.9900455 C129.519848,40.9961401 118.18077,41.0266131 106.841692,40.9453518 C105.691172,40.9372257 104.36223,40.5166986 103.422947,39.8564509 C93.587132,32.9553383 83.8354018,25.9363968 73.9934348,19.0454419 C72.9557113,18.3181536 71.4914136,17.8468383 70.2219455,17.8427752 C47.6094161,17.7716716 24.9968868,17.7899554 2.38435742,17.7899554 L0.612434208,17.7899554 C0.569366629,17.6782212 0.526299051,17.5664869 0.483231473,17.4547527" id="Fill-6" fill="#FFFFFF" fill-rule="nonzero" mask="url(#mask-4)"></path>
                </g>
            </g>
            <path d="M296.91411,17.9989829 L294.989775,17.9989829 C259.95092,17.9989829 224.912065,18.011442 189.875256,17.9491465 C188.531697,17.94707 187.026585,17.4757007 185.877301,16.7593025 C177.656442,11.6261532 169.509202,6.37464253 161.341513,1.15220307 C160.981595,0.923786232 160.664622,0.628920863 160,0.111868208 C160.95501,0.0599552909 161.509202,0.00181282375 162.06544,0.00181282375 C197.300613,-0.000263692931 232.537832,-0.00856975967 267.773006,0.0412666408 C268.862986,0.0433431574 270.08589,0.437881328 271.02045,1.02553555 C279.339468,6.25212804 287.607362,11.5617812 295.889571,16.8506692 C296.267894,17.0915451 296.629857,17.3573393 297,17.6127508 C296.97137,17.7414949 296.94274,17.8702389 296.91411,17.9989829" id="Fill-9" fill="#FFFFFF" fill-rule="nonzero"></path>
            <path d="M617,0.123248673 C616.259768,0.671312911 615.884554,0.982713047 615.480791,1.24221316 C607.226084,6.53601546 598.983612,11.8443498 590.696277,17.084176 C589.862242,17.6094043 588.765149,17.9602484 587.792447,17.9623244 C552.459119,18.0059204 517.123752,17.9996924 481.792462,17.9996924 L480,17.9996924 C480.703526,17.4433242 481.05223,17.1153161 481.445797,16.8620439 C489.926856,11.4312256 498.403837,6.00248323 506.905289,0.609032884 C507.470149,0.251960729 508.222616,0.0298286324 508.887397,0.0298286324 C544.481744,-0.00131138117 580.080169,-0.00131138117 615.674516,0.000764619734 C615.968162,0.000764619734 616.263847,0.0526646423 617,0.123248673" id="Fill-11" fill="#FFFFFF" fill-rule="nonzero"></path>
            <path d="M480,63.8564919 C484.766637,60.7651449 489.176184,57.8937108 493.597974,55.039032 C497.868767,52.280696 502.133438,49.5118879 506.440959,46.8184786 C507.175544,46.3598031 508.126422,46.0330754 508.979357,46.0330754 C544.472029,45.9932816 579.96266,45.9995648 615.457373,46.0016593 C615.828746,46.0016593 616.2042,46.0351698 617,46.0707747 C616.293983,46.6027545 615.922609,46.9211046 615.518588,47.1829057 C607.368782,52.4503431 599.229178,57.7387246 591.038561,62.9412354 C590.097885,63.5381418 588.867456,63.9549291 587.76966,63.9570235 C552.407581,64.0093837 517.045502,64.0010061 481.685463,63.9968173 C481.258996,63.9968173 480.83457,63.9277018 480,63.8564919" id="Fill-13" fill="#FFFFFF" fill-rule="nonzero"></path>
            <path d="M481.149151,23.000687 L483.112627,23.000687 C518.105827,23.000687 553.099026,22.9907666 588.090182,23.0463209 C589.373287,23.0483049 590.815758,23.4550415 591.906805,24.1078041 C600.226552,29.0799107 608.478875,34.1611418 616.749586,39.2086434 C617.007024,39.3653858 617.258333,39.5300645 618,39.9983076 L615.783172,39.9983076 C580.65921,39.9983076 545.535248,40.0141803 510.411287,39.9487056 C509.011722,39.9467215 507.440532,39.4645899 506.237111,38.7483367 C498.189104,33.9567814 490.216694,29.0402291 482.223853,24.1613743 C481.802962,23.9054279 481.406589,23.613768 481,23.3379808 C481.049036,23.2248881 481.100115,23.1137796 481.149151,23.000687" id="Fill-15" fill="#FFFFFF" fill-rule="nonzero"></path>
        </g>
    </g>
</svg>
