<?xml version="1.0" encoding="UTF-8"?>
<svg width="1111px" height="254px" viewBox="0 0 1111 254" version="1.1" xmlns="http://www.w3.org/2000/svg" xmlns:xlink="http://www.w3.org/1999/xlink">
    <!-- Generator: Sketch 55.2 (78181) - https://sketchapp.com -->
    <title>huracan</title>
    <desc>Created with Sketch.</desc>
    <defs>
        <polygon id="path-1" points="0.0887352068 0.726009738 153.228307 0.726009738 153.228307 63.999024 0.0887352068 63.999024"></polygon>
        <polygon id="path-3" points="0.761304053 0.485173333 153.792639 0.485173333 153.792639 63.6896481 0.761304053 63.6896481"></polygon>
        <polygon id="path-5" points="0 0.575592521 138.201098 0.575592521 138.201098 63.5144903 0 63.5144903"></polygon>
    </defs>
    <g id="huracan" stroke="none" stroke-width="1" fill="none" fill-rule="evenodd">
        <g id="Group-20" transform="translate(-3.000000, 95.000000)">
            <path d="M914.982222,32.2559919 C913.372974,26.578153 911.718212,21.5485585 910.573858,16.4016936 C909.897649,13.3754674 908.685023,12.2939743 905.495786,12.309904 C884.006636,12.4373047 862.514235,12.3493519 841.025085,12.3428369 C838.603085,12.3428369 836.16483,12.2776867 833.762337,12.5057124 C832.845553,12.5936652 831.434617,13.2516821 831.213548,13.9487891 C829.370228,19.8937437 827.747976,25.9038485 825.956671,32.2559919 L914.982222,32.2559919 Z M828.346161,45.1003514 C831.418362,51.2570442 834.194721,56.8273852 837.205152,62.8635502 C829.389734,62.8635502 822.188755,62.9645329 814.994279,62.7625674 C813.775152,62.7267348 812.331705,61.6159241 811.434427,60.6060961 C806.245821,54.7425792 801.206762,48.7455044 796.076674,42.8331249 C793.696938,40.0935595 793.319821,37.334449 795.166393,34.0671671 C800.426521,24.7572052 805.527349,15.3592906 810.702951,6.00046614 C813.001412,1.84714166 816.457232,-0.00312367998 821.275223,0.0099063576 C854.012854,0.0880865831 886.750485,0.0946016019 919.491368,-2.91322522e-13 C924.439399,-0.0128962082 927.956987,1.86668671 930.304214,6.15356908 C935.541585,15.7273892 940.752947,25.3174969 946.065091,34.8489693 C947.576809,37.5657322 947.206194,39.9046239 945.307607,42.1425329 C940.034475,48.3611183 934.790602,54.6122789 929.390681,60.7233665 C928.444638,61.7918296 926.812633,62.8309751 925.466717,62.8700652 C918.451046,63.0818033 911.425621,62.971048 903.642713,62.971048 C906.698659,56.8534453 909.523783,51.204924 912.579729,45.1003514 L828.346161,45.1003514 Z" id="Fill-1" fill="#FFFFFF" fill-rule="nonzero"></path>
            <path d="M595.941414,32.1904954 C594.395172,26.8135765 592.628037,22.0413173 591.731477,17.109766 C591.023324,13.2087366 589.236699,12.2042216 585.553004,12.2757404 C575.430962,12.4740428 565.295928,12.3342559 555.170638,12.3440084 C542.073055,12.3570119 528.972223,12.3407576 515.87464,12.4837953 C514.604512,12.4967988 512.519034,13.2802555 512.223429,14.1742414 C510.303619,19.9737717 508.776867,25.9033364 507.009733,32.1904954 L595.941414,32.1904954 Z M584.633704,62.8850948 C587.719692,56.6889598 590.484088,51.1299929 593.492114,45.0898991 L509.488269,45.0898991 C512.395594,50.9837043 515.172984,56.6076884 518.317443,62.9858714 C514.15948,62.9858714 510.719416,63.0216308 507.279351,62.9793697 C491.638264,62.7843182 496.36145,64.5885443 486.375842,53.6038957 C483.046223,49.9434298 479.953738,46.0651565 476.763801,42.2779071 C474.876476,40.0380661 474.402208,37.5609125 475.838005,34.9374702 C481.061445,25.3799483 486.327116,15.8451823 491.570047,6.30066378 C493.977118,1.9152566 497.582851,0.0135047784 502.650369,0.0265082097 C535.017512,0.124033944 567.384654,0.146789949 599.751797,7.03437308e-13 C605.225366,-0.0255055152 609.032501,1.95101603 611.608489,6.68101414 C616.766961,16.1475121 621.977409,25.5880032 627.15862,35.0382468 C628.406009,37.3105964 628.285818,39.6154546 626.668111,41.5399624 C621.149065,48.109946 615.561802,54.6246651 609.857596,61.0353567 C609.003265,61.9976106 607.398551,62.7745656 606.121927,62.8038233 C599.212562,62.9761188 592.293451,62.8850948 584.633704,62.8850948 L584.633704,62.8850948 Z" id="Fill-3" fill="#FFFFFF" fill-rule="nonzero"></path>
            <g id="Group-7" transform="translate(963.000000, 0.000000)">
                <g id="Fill-5-Clipped">
                    <mask id="mask-2" fill="white">
                        <use xlink:href="#path-1"></use>
                    </mask>
                    <g id="path-1"></g>
                    <path d="M36.0093129,15.862704 C34.480453,18.9110773 32.951593,21.601584 31.7935629,24.4449973 C31.3088818,25.642224 31.2958702,27.2461173 31.608148,28.5279307 C34.0901057,38.583984 36.7119379,48.6042507 39.2687122,58.640784 C39.642795,60.1112907 39.9127851,61.6045707 40.4267423,63.999024 C34.1974512,63.6834507 28.400795,63.7973173 22.7635305,62.8928907 C20.6784258,62.5577973 18.3818829,60.173104 17.2108413,58.1300107 C11.5540594,48.2984373 6.251843,38.2684107 0.829269502,28.3001973 C-0.361289525,26.110704 -0.0978051505,24.012304 1.48635399,22.1546507 C7.0553077,15.6056907 12.5949854,9.03395733 18.320078,2.62489067 C19.2081179,1.62937067 20.9809448,1.01449067 22.3796891,0.952677333 C27.7729865,0.724944 33.1858013,0.695664 38.5856046,0.816037333 C39.9030264,0.842064 41.3342996,1.50249067 42.4988355,2.218224 C66.9085484,17.2128373 91.2824796,32.259504 115.666169,47.289904 C115.93616,47.455824 116.241932,47.563184 116.99335,47.914544 C118.801959,40.6758773 120.623579,33.5901173 122.279302,26.4685707 C122.46797,25.6584907 121.843414,24.5816373 121.410779,23.719504 C118.213185,17.3104373 114.97005,10.9273973 111.749686,4.531344 C111.27151,3.57811733 110.851887,2.59561067 110.253355,1.30729067 C111.330062,1.06003733 112.019676,0.767237333 112.712542,0.767237333 C118.665337,0.754224 124.631144,0.617584 130.570927,0.926650667 C132.347007,1.017744 134.510182,1.96771733 135.720258,3.25603733 C140.915129,8.80297067 145.826998,14.613424 150.836454,20.3360373 C153.311906,23.163184 154.099106,26.091184 152.085565,29.6600907 C146.884188,38.8637707 141.861721,48.1715573 136.761184,57.4272907 C134.354043,61.793264 130.65225,63.5045173 125.668817,63.881904 C117.75778,64.4837707 111.089348,62.4146507 104.349353,58.0974773 C82.3565398,44.0235573 59.9928968,30.5352373 37.7723812,16.8256907 C37.3104703,16.5426507 36.8225363,16.3051573 36.0093129,15.862704" id="Fill-5" fill="#FFFFFF" fill-rule="nonzero" mask="url(#mask-2)"></path>
                </g>
            </g>
            <g id="Group-10" transform="translate(152.000000, 0.000000)">
                <g id="Fill-8-Clipped">
                    <mask id="mask-4" fill="white">
                        <use xlink:href="#path-3"></use>
                    </mask>
                    <g id="path-3"></g>
                    <path d="M113.696435,0.483872 C119.743564,0.792938667 125.351553,0.714858667 130.819667,1.55421867 C132.852725,1.86328533 135.188303,3.95517867 136.300792,5.86813867 C142.058414,15.758272 147.503758,25.8338453 152.975125,35.8898987 C154.377122,38.4730453 153.934728,40.9618453 151.963475,43.2164053 C146.671017,49.2708587 141.528192,55.461952 136.07309,61.366752 C134.895542,62.6420587 132.660805,63.5855253 130.907495,63.592032 C95.1874713,63.7221653 59.4641947,63.718912 23.7441709,63.601792 C21.9745969,63.5952853 19.7008243,62.7461653 18.5362884,61.483872 C13.0844389,55.579072 7.97089028,49.361952 2.66867384,43.320512 C0.495740972,40.8447253 0.173704514,38.2583253 1.73184051,35.4214187 C6.96899907,25.8631253 12.1833874,16.295072 17.4921096,6.77581867 C19.8439516,2.55624533 23.4904453,0.526165333 28.4120731,0.734378667 C31.4925633,0.864512 34.5828122,0.770165333 37.6665552,0.669312 C40.1908006,0.587978667 40.9877595,1.46312533 40.301399,4.04301867 C37.6893255,13.8322987 35.3374834,23.6898987 32.6440876,33.4564053 C31.6779782,36.9602453 32.3806032,39.7808853 33.5548978,43.1903787 C36.0075795,50.318432 40.3989858,51.7498987 47.4349944,51.5937387 C69.3660025,51.1057387 91.3132751,51.352992 113.250789,51.450592 C115.862862,51.460352 117.043663,50.416032 118.367591,48.3208853 C122.375155,41.9801387 123.253437,35.727232 120.683651,28.416992 C117.957726,20.657792 116.435372,12.4756587 114.408819,4.47245867 C114.148588,3.44440533 114.031483,2.38056533 113.696435,0.483872" id="Fill-8" fill="#FFFFFF" fill-rule="nonzero" mask="url(#mask-4)"></path>
                </g>
            </g>
            <path d="M466,62.8800423 C457.689238,62.8800423 450.512796,63.2350009 443.394858,62.7237302 C440.030901,62.4827491 436.523935,61.0433756 433.543501,59.336969 C426.763584,55.4552195 420.334688,50.9612479 413.613274,46.9687774 C411.643653,45.7996935 409.176751,44.8683341 406.930862,44.8585646 C381.361538,44.7283046 355.792213,44.7966911 330.222889,44.8129736 C329.780862,44.8129736 329.338834,44.8194866 328.896807,44.8162301 C324.096262,44.7966911 324.096262,44.7966911 324.089761,40.1594334 C324.080011,32.457808 324.07676,32.438269 331.717981,32.438269 C356.074981,32.4415255 380.431981,32.41873 404.788981,32.5327076 C407.905923,32.5489901 410.044554,31.6762477 412.105181,29.2208458 C416.824472,23.6066378 421.917535,18.3148233 427.387622,12.3130916 L422.281558,12.3130916 C390.868373,12.3196046 359.455189,12.2837831 328.045255,12.4010171 C324.843808,12.4107866 323.897999,11.5510703 324.008506,8.29782559 C324.291274,0.0100300237 324.128764,0.0035170213 332.446026,0.0035170213 L450.158524,0.0035170213 C451.039329,0.0035170213 451.923383,-0.00625248231 452.804187,0.00677352251 C457.260212,0.078416549 457.926503,1.19213996 455.810623,5.19112344 C450.444542,15.3253552 445.185718,25.5214605 439.592124,35.5286887 C437.827265,38.6907513 438.522808,40.3385409 441.16197,42.3575717 C448.604929,48.0434228 455.878877,53.957229 463.188577,59.8221877 C464.027129,60.4930269 464.667418,61.4146167 466,62.8800423" id="Fill-11" fill="#FFFFFF" fill-rule="nonzero"></path>
            <g id="Group-15">
                <g id="Fill-13-Clipped">
                    <mask id="mask-6" fill="white">
                        <use xlink:href="#path-5"></use>
                    </mask>
                    <g id="path-5"></g>
                    <path d="M138.201098,63.356816 C130.666676,63.356816 123.539433,63.473936 116.425219,63.249456 C115.125507,63.210416 113.610805,62.029456 112.633577,60.9721227 C108.44453,56.436976 104.496532,51.6806027 100.274911,47.1779893 C99.2813965,46.1174027 97.5712489,45.134896 96.1835863,45.125136 C78.0755665,44.9754827 59.9642892,44.9722293 41.8562693,45.0698293 C40.6314779,45.0795893 39.1037461,45.915696 38.2405287,46.8494027 C34.2045804,51.225136 30.4422557,55.8448693 26.3900203,60.2010827 C25.1163675,61.570736 23.2856953,63.229936 21.6374387,63.3112693 C14.6209475,63.6561227 7.57188202,63.4576693 -0.00162871199,63.4576693 C0.70523229,61.736656 1.21339043,60.2173493 1.92350886,58.8021493 C4.89102209,52.8908427 8.05072335,47.077136 10.8325634,41.0812427 C11.5817709,39.4708427 11.7576718,37.2358027 11.3374641,35.492016 C8.87159419,25.2212427 6.1418729,15.0122827 3.5326763,4.77404267 C3.24276556,3.64188267 3.13201315,2.46092267 2.90073605,1.078256 C8.77061404,1.078256 14.3212645,0.531696 19.6764695,1.332016 C22.0218148,1.68012267 24.5658629,4.396656 25.9698126,6.68374933 C30.6344437,14.2867893 34.9049266,22.1338293 39.1363203,29.987376 C40.2699038,32.0825227 41.4686359,33.012976 43.9475355,32.993456 C60.9545461,32.876336 77.9582992,32.8795893 94.9620523,32.9609227 C96.9425661,32.9706827 97.910021,32.2549493 98.7960403,30.612016 C102.656088,23.4319093 106.744155,16.3754293 110.552083,9.169296 C113.69224,3.22220267 118.07999,-0.0799306667 125.145343,0.684602667 C128.38648,1.03596267 131.692765,0.746416 135.45509,0.746416 C135.142377,2.45766933 134.99905,3.61910933 134.712397,4.74150933 C132.096686,14.9797493 129.360449,25.1919627 126.920639,35.4692427 C126.490659,37.2846027 126.800114,39.610736 127.594926,41.318736 C130.565696,47.7050293 133.891526,53.928656 137.04797,60.233616 C137.517039,61.1640693 137.78089,62.195376 138.201098,63.356816" id="Fill-13" fill="#FFFFFF" fill-rule="nonzero" mask="url(#mask-6)"></path>
                </g>
            </g>
            <path d="M780,0.332177516 C777.495985,4.44206011 775.534616,7.98528694 773.197318,11.2614691 C772.628521,12.0560898 770.814254,12.2417184 769.578592,12.2449751 C745.306649,12.2938247 721.031437,12.4110638 696.762762,12.1700723 C691.225163,12.1147094 687.56721,13.6062516 685.184147,18.8201359 C682.490533,24.7341983 679.198702,30.3779595 676.076856,36.0901101 C674.801966,38.4251226 675.200778,40.0306473 677.283098,41.7696943 C687.926794,50.6700977 687.887567,50.7091774 701.950584,50.7026641 C724.339613,50.6961508 746.725372,50.7450005 769.111132,50.6342746 C772.147986,50.6212481 774.096279,51.4419219 775.351555,54.3045105 C776.525108,56.9749572 778.130161,59.4565186 779.895394,62.6643113 C777.934024,62.8238868 776.79643,63.0002174 775.655567,63.0002174 C744.953602,63.0030021 714.258175,62.9736923 683.55621,62.9867189 C678.55145,62.9899755 673.961846,61.8273542 669.725289,59.0852614 C662.017108,54.0960854 654.184707,49.3023079 646.486333,44.303362 C641.079492,40.7927016 640.592419,38.4804855 644.84859,33.7160178 C654.348155,23.0830807 664.034049,12.6194889 673.82455,2.25033984 C675.014447,0.98676262 677.27656,0.110725839 679.04833,0.104212554 C711.522065,-0.0260531385 743.992531,-1.4814816e-12 776.469536,0.00651328462 C777.326,0.00651328462 778.182465,0.159575473 780,0.332177516" id="Fill-16" fill="#FFFFFF" fill-rule="nonzero"></path>
            <path d="M967,1.37245096 C966.02603,2.84578953 965.566368,3.86132925 964.827051,4.60928231 C959.78041,9.72244417 954.679123,14.7807991 949.593908,19.8520498 C948.015627,21.4253304 946.633426,21.4930331 945.47302,19.3555638 C942.512538,13.9006647 939.535984,8.45866142 936.546572,3.01988206 C935.347593,0.843725526 936.186557,0.0151740767 938.423794,0.0151740767 C946.906652,0.0151740767 955.392724,-0.036408893 963.869154,0.0506373683 C964.814193,0.0603091751 965.74959,0.824381913 967,1.37245096" id="Fill-18" fill="#FFFFFF" fill-rule="nonzero"></path>
        </g>
    </g>
</svg>
